<?xml version="1.0" encoding="UTF-8"?>
<svg width="8px" height="11px" viewBox="0 0 8 11" version="1.1" xmlns="http://www.w3.org/2000/svg" xmlns:xlink="http://www.w3.org/1999/xlink">
    <g id="pub.dev" stroke="none" stroke-width="1" fill="none" fill-rule="evenodd">
        <g id="general-ui---icons-and-components" transform="translate(-475.000000, -399.000000)" fill="#A5A5A6" fill-rule="nonzero">
            <path d="M482,402.5 L481.5,402.5 L481.5,401.5 C481.5,400.12 480.38,399 479,399 C477.62,399 476.5,400.12 476.5,401.5 L476.5,402.5 L476,402.5 C475.45,402.5 475,402.95 475,403.5 L475,408.5 C475,409.05 475.45,409.5 476,409.5 L482,409.5 C482.55,409.5 483,409.05 483,408.5 L483,403.5 C483,402.95 482.55,402.5 482,402.5 Z M479,407 C478.45,407 478,406.55 478,406 C478,405.45 478.45,405 479,405 C479.55,405 480,405.45 480,406 C480,406.55 479.55,407 479,407 Z M480.55,402.5 L477.45,402.5 L477.45,401.5 C477.45,400.645 478.145,399.95 479,399.95 C479.855,399.95 480.55,400.645 480.55,401.5 L480.55,402.5 Z" id="icon---admin-lock"></path>
        </g>
    </g>
</svg>