<?xml version="1.0" encoding="utf-8"?>
<!-- Generator: Adobe Illustrator 24.2.1, SVG Export Plug-In . SVG Version: 6.00 Build 0)  -->
<svg version="1.1" id="Layer_1" xmlns="http://www.w3.org/2000/svg" xmlns:xlink="http://www.w3.org/1999/xlink" x="0px" y="0px"
	 viewBox="0 0 1600 900" style="enable-background:new 0 0 1600 900;" xml:space="preserve">
<style type="text/css">
	.st0{fill:#12202F;}
	.st1{fill:#243240;}
</style>
<rect class="st0" width="1600" height="900"/>
<g>
	<path class="st1" d="M759.8,366.1c-23.3,0-42.2,19-42.2,42.2s19,42.2,42.2,42.2s42.2-19,42.2-42.2S783.1,366.1,759.8,366.1z
		 M759.8,448.6c-22.2,0-40.2-18.1-40.2-40.2s18.1-40.2,40.2-40.2s40.2,18.1,40.2,40.2S782,448.6,759.8,448.6z"/>
	<polygon class="st1" points="758.8,407.9 734.3,431.9 735.7,433.3 760.8,408.8 760.8,377.3 758.8,377.3 	"/>
	
		<rect x="369.6" y="708.7" transform="matrix(0.7071 -0.7071 0.7071 0.7071 -395.3261 474.9302)" class="st1" width="12" height="12"/>
	<path class="st1" d="M638.2,714.7l10.6,10.6l10.6-10.6l-10.6-10.6L638.2,714.7z M648.8,721l-6.3-6.3l6.3-6.3l6.3,6.3L648.8,721z"/>
	<path class="st1" d="M638.2,737.4l10.6,10.6l10.6-10.6l-10.6-10.6L638.2,737.4z M648.8,743.7l-6.3-6.3l6.3-6.3l6.3,6.3L648.8,743.7
		z"/>
	<path class="st1" d="M638.2,760.1l10.6,10.6l10.6-10.6l-10.6-10.6L638.2,760.1z M648.8,766.4l-6.3-6.3l6.3-6.3l6.3,6.3L648.8,766.4
		z"/>
	<path class="st1" d="M638.2,782.7l10.6,10.6l10.6-10.6l-10.6-10.6L638.2,782.7z M648.8,789.1l-6.3-6.3l6.3-6.3l6.3,6.3L648.8,789.1
		z"/>
	<path class="st1" d="M638.2,805.4l10.6,10.6l10.6-10.6l-10.6-10.6L638.2,805.4z M648.8,811.8l-6.3-6.3l6.3-6.3l6.3,6.3L648.8,811.8
		z"/>
	<polygon class="st1" points="551.7,713.2 394.8,713.2 394.8,716.2 551.7,716.2 551.7,806.9 627.3,806.9 627.3,803.9 554.7,803.9 
		554.7,784.2 627.3,784.2 627.3,781.2 554.7,781.2 554.7,761.6 627.3,761.6 627.3,758.6 554.7,758.6 554.7,738.9 627.3,738.9 
		627.3,735.9 554.7,735.9 554.7,716.2 627.3,716.2 627.3,713.2 553.2,713.2 	"/>
	<path class="st1" d="M410.1,232.7c23.3,0,42.2-19,42.2-42.2s-19-42.2-42.2-42.2s-42.2,19-42.2,42.2S386.8,232.7,410.1,232.7z
		 M410.1,150.2c22.2,0,40.2,18.1,40.2,40.2s-18.1,40.2-40.2,40.2s-40.2-18.1-40.2-40.2S387.9,150.2,410.1,150.2z"/>
	<polygon class="st1" points="421.7,183.5 420.3,182.1 405.7,196.6 400,190.9 398.6,192.3 405.7,199.5 	"/>
	<ellipse transform="matrix(0.9871 -0.1602 0.1602 0.9871 -9.0926 61.8367)" class="st1" cx="379" cy="87.3" rx="10.1" ry="10.1"/>
	<path class="st1" d="M413,98.5c6.1,0,11.1-5,11.1-11.1s-5-11.1-11.1-11.1c-6.1,0-11.1,5-11.1,11.1S406.8,98.5,413,98.5z M413,78.2
		c5,0,9.1,4.1,9.1,9.1s-4.1,9.1-9.1,9.1c-5,0-9.1-4.1-9.1-9.1S407.9,78.2,413,78.2z"/>
	<polygon class="st1" points="800.1,86.3 440.1,86.3 440.1,88.3 800.1,88.3 800.1,97.5 802.1,97.5 802.1,77.2 800.1,77.2 	"/>
	<path class="st1" d="M500.1,320.8h302V162.5h-302V320.8z M653.2,241.7l146.8-76.5v153L653.2,241.7z M797,318.8H505.2l145.9-76
		L797,318.8z M651.1,240.5l-145.9-76H797L651.1,240.5z M648.9,241.7l-146.8,76.5v-153L648.9,241.7z"/>
	<path class="st1" d="M799.3,580.4c-11.8,0-18-20.6-24-40.5c-6.3-20.6-12.7-41.9-26-41.9c-13.2,0-19.7,21.3-26,41.9
		c-6,19.9-12.3,40.5-24,40.5s-18-20.6-24-40.5c-6.3-20.6-12.7-41.9-26-41.9c-13.2,0-19.7,21.3-26,41.9c-6,19.9-12.3,40.5-24,40.5
		c-11.8,0-18-20.6-24-40.5c-6.3-20.6-12.7-41.9-26-41.9s-19.7,21.3-26,41.9c-6,19.9-12.3,40.5-24,40.5v2c13.2,0,19.7-21.3,26-41.9
		c6-19.9,12.3-40.5,24-40.5s18,20.6,24,40.5c6.3,20.6,12.7,41.9,26,41.9c13.2,0,19.7-21.3,26-41.9c6-19.9,12.3-40.5,24-40.5
		c11.8,0,18,20.6,24,40.5c6.3,20.6,12.7,41.9,26,41.9s19.7-21.3,26-41.9c6-19.9,12.3-40.5,24-40.5s18,20.6,24,40.5
		c6.3,20.6,12.7,41.9,26,41.9V580.4z"/>
	<path class="st1" d="M598.1,654.9l9.1,9.1l9.1-9.1l-9.1-9.1L598.1,654.9z M607.2,659.8l-4.8-4.8l4.8-4.8l4.8,4.8L607.2,659.8z"/>
	
		<rect x="783.8" y="648.5" transform="matrix(0.7071 -0.7071 0.7071 0.7071 -231.6546 750.6031)" class="st1" width="12.8" height="12.8"/>
	<rect x="626.8" y="653.4" class="st1" width="139.5" height="3"/>
	<rect x="368.9" y="369.6" class="st1" width="12" height="12"/>
	
		<rect x="393.4" y="369.6" transform="matrix(0.7071 -0.7071 0.7071 0.7071 -148.5974 392.3973)" class="st1" width="12" height="12"/>
	<polygon class="st1" points="423.9,369.2 416.5,382 431.3,382 	"/>
	<path class="st1" d="M441.7,375.6c0,3.7,3,6.7,6.7,6.7s6.7-3,6.7-6.7s-3-6.7-6.7-6.7S441.7,371.9,441.7,375.6z"/>
	<path class="st1" d="M608.3,443c-4.2,0-7.7,3.4-7.7,7.7s3.4,7.7,7.7,7.7s7.7-3.4,7.7-7.7S612.5,443,608.3,443z M608.3,456.3
		c-3.1,0-5.7-2.5-5.7-5.7s2.5-5.7,5.7-5.7s5.7,2.5,5.7,5.7S611.4,456.3,608.3,456.3z"/>
	<polygon class="st1" points="469.3,376.6 607.3,376.6 607.3,434.8 609.3,434.8 609.3,374.6 469.3,374.6 	"/>
	<path class="st1" d="M1215.8,382.6h11.3v-11.7h-11.3V382.6z M1217.8,372.8h7.3v7.7h-7.3V372.8z"/>
	<path class="st1" d="M1198.6,370.8h-11.3v11.7h11.3V370.8z M1196.6,380.6h-7.3v-7.7h7.3V380.6z"/>
	<path class="st1" d="M1170.1,370.8h-11.3v11.7h11.3V370.8z M1168.1,380.6h-7.3v-7.7h7.3V380.6z"/>
	<path class="st1" d="M1130.4,382.6h11.3v-11.7h-11.3V382.6z M1132.4,372.8h7.3v7.7h-7.3V372.8z"/>
	<polygon class="st1" points="1137.1,397.7 1135.1,397.7 1135.1,471.4 1220.5,471.4 1220.5,665 1222.5,665 1222.5,470.4 
		1222.5,469.4 1222.5,397.7 1220.5,397.7 1220.5,469.4 1194,469.4 1194,397.7 1192,397.7 1192,469.4 1165.5,469.4 1165.5,397.7 
		1163.5,397.7 1163.5,469.4 1137.1,469.4 	"/>
	<circle class="st1" cx="1221.5" cy="683.4" r="7"/>
	<path class="st1" d="M443.2,442.9h-77V485h77V442.9z M441.2,483h-73v-38.1h73V483z"/>
	<path class="st1" d="M443.2,499.5h-77v42.1h77V499.5z M441.2,539.7h-73v-38.1h73V539.7z"/>
	<path class="st1" d="M443.2,556.2h-77v42.1h77V556.2z M441.2,596.3h-73v-38.1h73V596.3z"/>
	<circle class="st1" cx="404.7" cy="463.9" r="7.5"/>
	<path class="st1" d="M793.2,730.3h-26.1v-8.8h7.1v-16.1h-16.1v16.1h7.1v8.8h-26.1v10.8h-7.1v16.1h16.1v-16.1h-7.1v-8.8h24.1v8.8
		h-7.1v16.1h16.1v-16.1h-7.1v-8.8h24.1v8.8h-7.1v16.1h16.1v-16.1h-7.1V730.3z M760.1,707.4h12.1v12.1h-12.1V707.4z M746.2,755.2
		h-12.1v-12.1h12.1V755.2z M772.2,755.2h-12.1v-12.1h12.1V755.2z M798.3,755.2h-12.1v-12.1h12.1V755.2z"/>
	<rect x="367.2" y="671.5" class="st1" width="33" height="2"/>
	<polygon class="st1" points="382.7,628.6 382.7,659.1 370.6,647 369.1,648.4 383.7,663 398.2,648.4 396.8,647 384.7,659.1 
		384.7,628.6 	"/>
	<path class="st1" d="M914.2,183.4l50.6-31.6l-17.7-11.1l17.7-11.1l-17.7-11.1l17.7-11.1L914.2,76l-50.6,31.6l17.7,11.1l-17.7,11.1
		l17.7,11.1l-17.7,11.1L914.2,183.4z M914.2,78.4l46.9,29.2l-46.9,29.2l-46.9-29.2L914.2,78.4z M883.2,119.8l31,19.3l31-19.3
		l15.8,9.9l-46.9,29.2l-46.9-29.2L883.2,119.8z M914.2,161.3l31-19.3l15.8,9.9L914.2,181l-46.9-29.2l15.8-9.9L914.2,161.3z"/>
	<polygon class="st1" points="885.4,409 884,407.5 872.7,418.8 872.7,375.6 870.7,375.6 870.7,418.8 859.5,407.5 858.1,409 
		871.7,422.6 	"/>
	<polygon class="st1" points="906.6,421.2 906.6,378 917.9,389.3 919.3,387.8 905.6,374.2 891.9,387.8 893.3,389.3 904.6,378 
		904.6,421.2 	"/>
	<polygon class="st1" points="1027.6,371.8 1043.7,371.8 1012.9,402.7 1014.3,404.1 1045.2,373.3 1045.2,389.4 1047.2,389.4 
		1047.2,369.8 1027.6,369.8 	"/>
	<polygon class="st1" points="1045.2,422.3 994.7,422.3 994.7,371.8 1006.6,371.8 1006.6,369.8 992.7,369.8 992.7,424.3 
		1047.2,424.3 1047.2,409.8 1045.2,409.8 	"/>
	<path class="st1" d="M1026.1,463.8H878.4c-11.4,0-20.6,9.3-20.6,20.6v319c0,11.4,9.3,20.6,20.6,20.6h147.7
		c11.4,0,20.6-9.3,20.6-20.6v-319C1046.7,473,1037.5,463.8,1026.1,463.8z M859.8,493.2l90.8,152.6l-90.5,153h-0.4V493.2z
		 M951.8,647.8l89.9,151H862.5L951.8,647.8z M1043.9,798.8C1043.9,798.8,1043.9,798.8,1043.9,798.8l-91-153l91.6-155h0.2v307.9
		H1043.9z M951.7,643.9l-91.1-153h181.5L951.7,643.9z M1026.1,822H878.4c-10.3,0-18.6-8.4-18.6-18.6v-2.5h185v2.5
		C1044.7,813.6,1036.4,822,1026.1,822z M1044.7,488.9h-185v-4.5c0-10.3,8.4-18.6,18.6-18.6h147.7c10.3,0,18.6,8.4,18.6,18.6V488.9z"
		/>
	<path class="st1" d="M1000.9,321.9h94.1v-94.1h-94.1V321.9z M1002.9,229.7h90.1v90.1h-90.1V229.7z"/>
	<path class="st1" d="M914.2,226.5L859,322.1h110.4L914.2,226.5z M914.2,230.5l51.8,89.6H862.4L914.2,230.5z"/>
	<path class="st1" d="M1181.7,224.1c-28.7,0-52.1,23.4-52.1,52.1s23.4,52.1,52.1,52.1c28.7,0,52.1-23.4,52.1-52.1
		S1210.5,224.1,1181.7,224.1z M1181.7,326.3c-27.6,0-50.1-22.5-50.1-50.1s22.5-50.1,50.1-50.1s50.1,22.5,50.1,50.1
		S1209.4,326.3,1181.7,326.3z"/>
	<path class="st1" d="M1190.1,85.4c-2.9,0-5.2,2.3-5.2,5.2c0,2.9,2.3,5.2,5.2,5.2c2.9,0,5.2-2.3,5.2-5.2
		C1195.4,87.7,1193,85.4,1190.1,85.4z M1190.1,93.9c-1.8,0-3.2-1.5-3.2-3.2s1.5-3.2,3.2-3.2s3.2,1.5,3.2,3.2
		S1191.9,93.9,1190.1,93.9z"/>
	<path class="st1" d="M1190.1,110.4c-2.9,0-5.2,2.3-5.2,5.2c0,2.9,2.3,5.2,5.2,5.2c2.9,0,5.2-2.3,5.2-5.2
		C1195.4,112.7,1193,110.4,1190.1,110.4z M1190.1,118.9c-1.8,0-3.2-1.5-3.2-3.2s1.5-3.2,3.2-3.2s3.2,1.5,3.2,3.2
		S1191.9,118.9,1190.1,118.9z"/>
	<path class="st1" d="M1190.1,135.4c-2.9,0-5.2,2.3-5.2,5.2c0,2.9,2.3,5.2,5.2,5.2c2.9,0,5.2-2.3,5.2-5.2
		C1195.4,137.7,1193,135.4,1190.1,135.4z M1190.1,143.9c-1.8,0-3.2-1.5-3.2-3.2s1.5-3.2,3.2-3.2s3.2,1.5,3.2,3.2
		S1191.9,143.9,1190.1,143.9z"/>
	<rect x="1086.2" y="177.7" class="st1" width="59.4" height="2"/>
	<rect x="1173.4" y="177.7" class="st1" width="59.4" height="2"/>
	<path class="st1" d="M1151.7,178.7c0,4.3,3.5,7.8,7.8,7.8s7.8-3.5,7.8-7.8s-3.5-7.8-7.8-7.8S1151.7,174.4,1151.7,178.7z
		 M1165.2,178.7c0,3.2-2.6,5.8-5.8,5.8s-5.8-2.6-5.8-5.8s2.6-5.8,5.8-5.8S1165.2,175.5,1165.2,178.7z"/>
	<path class="st1" d="M1158.5,164.5h2v-10.3h41.7v-25v-2v-23v-2v-25h-85.3v25v2v23v2v25h41.7V164.5z M1118.8,79.1h81.3v23h-81.3
		V79.1z M1118.8,104.1h81.3v23h-81.3V104.1z M1118.8,129.1h81.3v23h-81.3V129.1z"/>
	<path class="st1" d="M1130.2,784.7v-9c0-23.9,19.4-43.3,43.3-43.3c7.8,0,15.4,2.1,22.1,6.1l1-1.7c-7-4.1-15-6.3-23.1-6.3
		c-25,0-45.3,20.3-45.3,45.3v8.7l-14.4-14.4l-1.4,1.4l16.9,16.9l16.6-16.6l-1.4-1.4L1130.2,784.7z"/>
	<path class="st1" d="M1200,778.5l1.4,1.4l14.4-14.4v9c0,23.9-19.4,43.3-43.3,43.3c-7.8,0-15.4-2.1-22.1-6.1l-1,1.7
		c7,4.1,15,6.3,23.1,6.3c25,0,45.3-20.3,45.3-45.3v-8.7l14.4,14.4l1.4-1.4l-16.9-16.9L1200,778.5z"/>
	<polygon class="st1" points="371.7,293.8 370.3,295.2 379.9,304.8 370.3,314.4 371.7,315.8 382.7,304.8 	"/>
	<rect x="389.7" y="320.6" class="st1" width="29.3" height="2"/>
	<path class="st1" d="M294.2,382.6h11.3v-11.7h-11.3V382.6z M296.2,372.8h7.3v7.7h-7.3V372.8z"/>
	<path class="st1" d="M277,370.8h-11.3v11.7H277V370.8z M275,380.6h-7.3v-7.7h7.3V380.6z"/>
	<path class="st1" d="M248.5,370.8h-11.3v11.7h11.3V370.8z M246.5,380.6h-7.3v-7.7h7.3V380.6z"/>
	<path class="st1" d="M208.8,382.6h11.3v-11.7h-11.3V382.6z M210.8,372.8h7.3v7.7h-7.3V372.8z"/>
	<polygon class="st1" points="215.4,397.7 213.4,397.7 213.4,471.4 298.8,471.4 298.8,665 300.8,665 300.8,470.4 300.8,469.4 
		300.8,397.7 298.8,397.7 298.8,469.4 272.4,469.4 272.4,397.7 270.4,397.7 270.4,469.4 243.9,469.4 243.9,397.7 241.9,397.7 
		241.9,469.4 215.4,469.4 	"/>
	<ellipse transform="matrix(0.3827 -0.9239 0.9239 0.3827 -446.3225 698.9205)" class="st1" cx="299.8" cy="683.4" rx="7" ry="7"/>
	<polygon class="st1" points="106,371.8 122.1,371.8 91.3,402.7 92.7,404.1 123.5,373.3 123.5,389.4 125.5,389.4 125.5,369.8 
		106,369.8 	"/>
	<polygon class="st1" points="123.5,422.3 73,422.3 73,371.8 85,371.8 85,369.8 71,369.8 71,424.3 125.5,424.3 125.5,409.8 
		123.5,409.8 	"/>
	<path class="st1" d="M79.3,321.9h94.1v-94.1H79.3V321.9z M81.3,229.7h90.1v90.1H81.3V229.7z"/>
	<path class="st1" d="M260.1,224.1c-28.7,0-52.1,23.4-52.1,52.1s23.4,52.1,52.1,52.1s52.1-23.4,52.1-52.1S288.8,224.1,260.1,224.1z
		 M260.1,326.3c-27.6,0-50.1-22.5-50.1-50.1s22.5-50.1,50.1-50.1c27.6,0,50.1,22.5,50.1,50.1S287.7,326.3,260.1,326.3z"/>
	<path class="st1" d="M268.5,85.4c-2.9,0-5.2,2.3-5.2,5.2c0,2.9,2.3,5.2,5.2,5.2s5.2-2.3,5.2-5.2C273.8,87.7,271.4,85.4,268.5,85.4z
		 M268.5,93.9c-1.8,0-3.2-1.5-3.2-3.2s1.5-3.2,3.2-3.2s3.2,1.5,3.2,3.2S270.3,93.9,268.5,93.9z"/>
	<path class="st1" d="M268.5,110.4c-2.9,0-5.2,2.3-5.2,5.2c0,2.9,2.3,5.2,5.2,5.2s5.2-2.3,5.2-5.2
		C273.8,112.7,271.4,110.4,268.5,110.4z M268.5,118.9c-1.8,0-3.2-1.5-3.2-3.2s1.5-3.2,3.2-3.2s3.2,1.5,3.2,3.2
		S270.3,118.9,268.5,118.9z"/>
	<path class="st1" d="M268.5,135.4c-2.9,0-5.2,2.3-5.2,5.2c0,2.9,2.3,5.2,5.2,5.2s5.2-2.3,5.2-5.2
		C273.8,137.7,271.4,135.4,268.5,135.4z M268.5,143.9c-1.8,0-3.2-1.5-3.2-3.2s1.5-3.2,3.2-3.2s3.2,1.5,3.2,3.2
		S270.3,143.9,268.5,143.9z"/>
	<rect x="164.5" y="177.7" class="st1" width="59.4" height="2"/>
	<rect x="251.8" y="177.7" class="st1" width="59.4" height="2"/>
	<path class="st1" d="M230.1,178.7c0,4.3,3.5,7.8,7.8,7.8s7.8-3.5,7.8-7.8s-3.5-7.8-7.8-7.8S230.1,174.4,230.1,178.7z M243.6,178.7
		c0,3.2-2.6,5.8-5.8,5.8s-5.8-2.6-5.8-5.8s2.6-5.8,5.8-5.8S243.6,175.5,243.6,178.7z"/>
	<path class="st1" d="M236.9,164.5h2v-10.3h41.7v-25v-2v-23v-2v-25h-85.3v25v2v23v2v25h41.7V164.5z M197.2,79.1h81.3v23h-81.3V79.1z
		 M197.2,104.1h81.3v23h-81.3V104.1z M197.2,129.1h81.3v23h-81.3V129.1z"/>
	<path class="st1" d="M208.6,784.7v-9c0-23.9,19.4-43.3,43.3-43.3c7.8,0,15.4,2.1,22.1,6.1l1-1.7c-7-4.1-15-6.3-23.1-6.3
		c-25,0-45.3,20.3-45.3,45.3v8.7L192.2,770l-1.4,1.4l16.9,16.9l16.6-16.6l-1.4-1.4L208.6,784.7z"/>
	<path class="st1" d="M278.3,778.5l1.4,1.4l14.4-14.4v9c0,23.9-19.4,43.3-43.3,43.3c-7.8,0-15.4-2.1-22.1-6.1l-1,1.7
		c7,4.1,15,6.3,23.1,6.3c25,0,45.3-20.3,45.3-45.3v-8.7l14.4,14.4l1.4-1.4L295,761.8L278.3,778.5z"/>
	
		<rect x="1291.3" y="708.7" transform="matrix(0.7071 -0.7071 0.7071 0.7071 -125.3945 1126.5996)" class="st1" width="12" height="12"/>
	<path class="st1" d="M1559.8,714.7l10.6,10.6l10.6-10.6l-10.6-10.6L1559.8,714.7z M1570.4,721l-6.3-6.3l6.3-6.3l6.3,6.3L1570.4,721
		z"/>
	<path class="st1" d="M1559.8,737.4l10.6,10.6l10.6-10.6l-10.6-10.6L1559.8,737.4z M1570.4,743.7l-6.3-6.3l6.3-6.3l6.3,6.3
		L1570.4,743.7z"/>
	<path class="st1" d="M1559.8,760.1l10.6,10.6l10.6-10.6l-10.6-10.6L1559.8,760.1z M1570.4,766.4l-6.3-6.3l6.3-6.3l6.3,6.3
		L1570.4,766.4z"/>
	<path class="st1" d="M1559.8,782.7l10.6,10.6l10.6-10.6l-10.6-10.6L1559.8,782.7z M1570.4,789.1l-6.3-6.3l6.3-6.3l6.3,6.3
		L1570.4,789.1z"/>
	<path class="st1" d="M1559.8,805.4l10.6,10.6l10.6-10.6l-10.6-10.6L1559.8,805.4z M1570.4,811.8l-6.3-6.3l6.3-6.3l6.3,6.3
		L1570.4,811.8z"/>
	<polygon class="st1" points="1473.3,713.2 1316.4,713.2 1316.4,716.2 1473.3,716.2 1473.3,806.9 1548.9,806.9 1548.9,803.9 
		1476.3,803.9 1476.3,784.2 1548.9,784.2 1548.9,781.2 1476.3,781.2 1476.3,761.6 1548.9,761.6 1548.9,758.6 1476.3,758.6 
		1476.3,738.9 1548.9,738.9 1548.9,735.9 1476.3,735.9 1476.3,716.2 1548.9,716.2 1548.9,713.2 1474.8,713.2 	"/>
	<path class="st1" d="M1331.7,232.7c23.3,0,42.2-19,42.2-42.2s-19-42.2-42.2-42.2s-42.2,19-42.2,42.2S1308.4,232.7,1331.7,232.7z
		 M1331.7,150.2c22.2,0,40.2,18.1,40.2,40.2s-18.1,40.2-40.2,40.2s-40.2-18.1-40.2-40.2S1309.5,150.2,1331.7,150.2z"/>
	<polygon class="st1" points="1343.3,183.5 1341.9,182.1 1327.3,196.6 1321.6,190.9 1320.2,192.3 1327.3,199.5 	"/>
	<circle class="st1" cx="1300.6" cy="87.3" r="10.1"/>
	<path class="st1" d="M1334.6,98.5c6.1,0,11.1-5,11.1-11.1s-5-11.1-11.1-11.1s-11.1,5-11.1,11.1S1328.4,98.5,1334.6,98.5z
		 M1334.6,78.2c5,0,9.1,4.1,9.1,9.1s-4.1,9.1-9.1,9.1s-9.1-4.1-9.1-9.1S1329.5,78.2,1334.6,78.2z"/>
	<path class="st1" d="M1528.8,645.9l-9.1,9.1l9.1,9.1l9.1-9.1L1528.8,645.9z M1523.9,654.9l4.8-4.8l4.8,4.8l-4.8,4.8L1523.9,654.9z"
		/>
	<rect x="1290.5" y="369.6" class="st1" width="12" height="12"/>
	
		<rect x="1315" y="369.6" transform="matrix(0.7071 -0.7071 0.7071 0.7071 121.3372 1044.0789)" class="st1" width="12" height="12"/>
	<polygon class="st1" points="1345.5,369.2 1338.1,382 1352.9,382 	"/>
	<path class="st1" d="M1363.3,375.6c0,3.7,3,6.7,6.7,6.7s6.7-3,6.7-6.7s-3-6.7-6.7-6.7S1363.3,371.9,1363.3,375.6z"/>
	<path class="st1" d="M1522.2,450.7c0,4.2,3.4,7.7,7.7,7.7s7.7-3.4,7.7-7.7s-3.4-7.7-7.7-7.7S1522.2,446.4,1522.2,450.7z
		 M1535.5,450.7c0,3.1-2.5,5.7-5.7,5.7s-5.7-2.5-5.7-5.7s2.5-5.7,5.7-5.7S1535.5,447.6,1535.5,450.7z"/>
	<polygon class="st1" points="1390.9,376.6 1528.9,376.6 1528.9,434.8 1530.9,434.8 1530.9,374.6 1390.9,374.6 	"/>
	<path class="st1" d="M1364.8,442.9h-77V485h77V442.9z M1362.8,483h-73v-38.1h73V483z"/>
	<path class="st1" d="M1364.8,499.5h-77v42.1h77V499.5z M1362.8,539.7h-73v-38.1h73V539.7z"/>
	<path class="st1" d="M1364.8,556.2h-77v42.1h77V556.2z M1362.8,596.3h-73v-38.1h73V596.3z"/>
	<circle class="st1" cx="1326.3" cy="463.9" r="7.5"/>
	<rect x="1288.8" y="671.5" class="st1" width="33" height="2"/>
	<polygon class="st1" points="1304.3,628.6 1304.3,659.1 1292.2,647 1290.8,648.4 1305.3,663 1319.8,648.4 1318.4,647 1306.3,659.1 
		1306.3,628.6 	"/>
	<polygon class="st1" points="1293.3,293.8 1291.9,295.2 1301.5,304.8 1291.9,314.4 1293.3,315.8 1304.3,304.8 	"/>
	<rect x="1311.4" y="320.6" class="st1" width="29.3" height="2"/>
	<polygon class="st1" points="25.5,118.6 43.2,107.6 0,80.6 0,83 39.4,107.6 0,132.2 0,134.5 23.6,119.8 39.4,129.7 0,154.3 
		0,156.6 23.6,141.9 39.4,151.8 0,176.4 0,178.7 43.2,151.8 25.5,140.7 43.2,129.7 	"/>
	<polygon class="st1" points="0,239.3 0,243.3 44.3,320.1 0,320.1 0,322.1 47.8,322.1 	"/>
	<path class="st1" d="M104.5,463.8H0v2h104.5c10.3,0,18.6,8.4,18.6,18.6v4.5H0v2h120.6l-90.5,153L0,593.3v3.9l29,48.7l-29,49v3.9
		l30.1-51l89.8,151H0v2h123.1v2.5c0,10.3-8.4,18.6-18.6,18.6H0v2h104.5c11.4,0,20.6-9.3,20.6-20.6v-319
		C125.1,473,115.9,463.8,104.5,463.8z M123.1,798.8h-0.8c0,0,0-0.1,0-0.1l-91-152.9l91.6-155h0.2V798.8z"/>
	<rect x="1548.5" y="653.4" class="st1" width="51.5" height="3"/>
	<path class="st1" d="M1600,550c-1.1-3.3-2.1-6.7-3.1-10.1c-6.3-20.6-12.7-41.9-26-41.9c-13.2,0-19.7,21.3-26,41.9
		c-6,19.9-12.3,40.5-24,40.5c-11.8,0-18-20.6-24-40.5c-6.3-20.6-12.7-41.9-26-41.9s-19.7,21.3-26,41.9c-6,19.9-12.3,40.4-24,40.4v2
		c13.2,0,19.7-21.3,26-41.9c6-19.9,12.3-40.5,24-40.5s18,20.6,24,40.5c6.3,20.6,12.7,41.9,26,41.9c13.2,0,19.7-21.3,26-41.9
		c6-19.9,12.3-40.4,24-40.4s18,20.6,24,40.5c1.6,5.3,3.3,10.7,5,15.8V550z"/>
	<path class="st1" d="M1600,318.8h-173.2l145.9-76L1600,257v-2.3l-25.1-13.1l25.1-13.1v-2.3l-27.3,14.2l-145.9-76H1600v-2h-178.3
		v158.3H1600V318.8z M1423.7,165.2l146.8,76.5l-146.8,76.5V165.2z"/>
	<rect x="1361.7" y="86.3" class="st1" width="238.3" height="2"/>
</g>
</svg>
