<?xml version="1.0" encoding="UTF-8"?>
<svg width="15px" height="8px" viewBox="0 0 15 8" version="1.1" xmlns="http://www.w3.org/2000/svg" xmlns:xlink="http://www.w3.org/1999/xlink">
    <g id="pub.dev" stroke="none" stroke-width="1" fill="none" fill-rule="evenodd">
        <g id="general-ui---icons-and-components" transform="translate(-374.000000, -401.000000)" fill="#6D7278" fill-rule="nonzero">
            <path d="M385.25,401 L382.25,401 L382.25,402.5 L385.25,402.5 C386.4875,402.5 387.5,403.5125 387.5,404.75 C387.5,405.9875 386.4875,407 385.25,407 L382.25,407 L382.25,408.5 L385.25,408.5 C387.32,408.5 389,406.82 389,404.75 C389,402.68 387.32,401 385.25,401 Z M380.75,407 L377.75,407 C376.5125,407 375.5,405.9875 375.5,404.75 C375.5,403.5125 376.5125,402.5 377.75,402.5 L380.75,402.5 L380.75,401 L377.75,401 C375.68,401 374,402.68 374,404.75 C374,406.82 375.68,408.5 377.75,408.5 L380.75,408.5 L380.75,407 Z M378.5,404 L384.5,404 L384.5,405.5 L378.5,405.5 L378.5,404 Z" id="icon---link"></path>
        </g>
    </g>
</svg>
