<svg xmlns="http://www.w3.org/2000/svg" height="24" viewBox="0 0 24 24" width="24"><path d="M0 0h24v24H0z" fill="none"/><path d="M 8.5996094 1.5390625 L 6.7109375 4.7207031 L 3.0996094 5.5292969 L 3.4394531 9.2109375 L 1 12 L 3.4394531 14.779297 L 3.0996094 18.470703 L 6.7109375 19.289062 L 8.5996094 22.470703 L 12 21 L 15.400391 22.460938 L 17.289062 19.279297 L 20.900391 18.460938 L 20.560547 14.779297 L 23 12 L 20.560547 9.2207031 L 20.900391 5.5390625 L 17.289062 4.7207031 L 15.400391 1.5390625 L 12 3 L 8.5996094 1.5390625 z M 16.589844 7.5859375 L 18 9.0058594 L 10 17.005859 L 6 13.005859 L 7.4101562 11.595703 L 10 14.175781 L 16.589844 7.5859375 z"/></svg>
