<?xml version="1.0" encoding="UTF-8"?>
<svg width="549px" height="51px" viewBox="0 0 549 51" version="1.1" xmlns="http://www.w3.org/2000/svg" xmlns:xlink="http://www.w3.org/1999/xlink">
    <!-- Generator: Sketch 46.2 (44496) - http://www.bohemiancoding.com/sketch -->
    <title>Group 3</title>
    <desc>Created with Sketch.</desc>
    <defs></defs>
    <g id="pub.dartlang.org_v6-tweaks" stroke="none" stroke-width="1" fill="none" fill-rule="evenodd">
        <g id="01-homepage" transform="translate(-366.000000, -108.000000)">
            <g id="Group-3" transform="translate(366.000000, 108.000000)">
                <g id="Group-4" transform="translate(0.375000, 0.000000)" fill-rule="nonzero">
                    <g id="Group-2" transform="translate(53.875000, 2.693750)" fill="#231F20">
                        <path d="M28.4138822,5.48321701 C31.9494291,8.70560812 33.6977764,13.1315429 33.6977764,18.8386693 C33.6977764,24.5846197 31.9882813,29.1270265 28.5304387,32.4658896 C25.1114483,35.8047527 19.8664063,37.4741842 12.8341647,37.4741842 L0.440324519,37.4741842 L0.440324519,0.74669031 L13.2615385,0.74669031 C19.8275541,0.785514299 24.8783353,2.26082589 28.4138822,5.48321701 Z M22.3529447,27.302299 C24.3732572,25.3999235 25.3834135,22.6434203 25.3834135,18.9939653 C25.3834135,15.3833343 24.3732572,12.5103591 22.3529447,10.5691596 C20.3326322,8.62796014 17.2244591,7.57971243 13.0284255,7.57971243 L8.28846154,7.57971243 L8.28846154,30.1364502 L13.6500601,30.1364502 C17.41872,30.1364502 20.3326322,29.2046745 22.3529447,27.302299 Z" id="Shape"></path>
                        <path d="M62.9146034,37.5130082 L55.5715445,37.5130082 L55.5715445,34.0188491 C53.4735276,36.5812324 51.0258413,37.8624241 48.0342248,37.8624241 C45.0426082,37.8624241 42.5172175,37.0082963 40.4580529,35.2612168 C38.3988882,33.5141373 37.388732,31.1846979 37.388732,28.3117227 C37.388732,25.3999235 38.4377404,23.2646041 40.5746094,21.8281165 C42.6726262,20.3916289 45.5865385,19.6927971 49.2386418,19.6927971 L55.0664663,19.6927971 L55.0664663,19.4598532 C55.0664663,16.431582 53.5123798,14.9174464 50.3265024,14.9174464 C48.9666767,14.9174464 47.5291466,15.1892143 45.9750601,15.7327502 C44.4598257,16.276286 43.1777043,16.9362938 42.0898437,17.7515976 L38.5542969,12.626831 C42.2841046,9.90915179 46.5578425,8.55031216 51.3366587,8.55031216 C54.7945012,8.55031216 57.5141526,9.40443992 59.728726,11.1515194 C61.9044471,12.859775 62.9146034,15.6162782 62.9146034,19.3433812 L62.9146034,37.5130082 L62.9146034,37.5130082 Z M55.0276142,26.6034672 L55.0276142,25.4387475 L50.0933894,25.4387475 C46.907512,25.4387475 45.3534255,26.3316993 45.3534255,28.2728987 C45.3534255,29.2823224 45.7419471,30.0199782 46.4801382,30.5635141 C47.2183293,31.1070499 48.3061899,31.3399939 49.74372,31.3399939 C51.1423978,31.3399939 52.3856671,30.91293 53.4346755,30.0199782 C54.5225361,29.2046745 55.0276142,28.0399548 55.0276142,26.6034672 Z" id="Shape"></path>
                        <path d="M83.7782151,16.0045181 C81.4082332,16.0045181 79.5433293,16.8198219 78.3777644,18.5280774 C77.2121995,20.197509 76.5128606,22.4104763 76.5128606,25.1669796 L76.5128606,37.5518322 L68.6258714,37.5518322 L68.6258714,9.24914397 L76.5128606,9.24914397 L76.5128606,12.859775 C77.561869,11.6950553 78.999399,10.7244556 80.5146334,9.90915179 C82.0298678,9.09384801 83.8559195,8.66678413 85.410006,8.62796014 L85.410006,16.0821661 L83.7782151,16.0045181 L83.7782151,16.0045181 Z" id="Shape"></path>
                        <path d="M98.0758113,14.9562704 L98.0758113,27.457595 C98.0758113,28.5446667 98.3866286,29.3987944 98.9694111,30.0199782 C99.5133413,30.6411621 100.21268,30.951754 100.989724,30.951754 C102.466106,30.951754 103.709375,30.2917462 104.758383,28.9329065 L107.711148,34.484737 C105.263462,36.7365284 102.660367,37.8624241 99.9407151,37.8624241 C97.2210637,37.8624241 94.9287861,36.9694723 93.02503,35.1835688 C91.121274,33.3976653 90.2276743,30.951754 90.2276743,27.8458348 L90.2276743,0.824338289 L98.1146635,0.824338289 L98.1146635,8.70560812 L106.506731,8.70560812 L102.194141,14.9950944 L98.0758113,14.9562704 L98.0758113,14.9562704 Z" id="Shape"></path>
                    </g>
                    <g id="Group">
                        <path d="M11.5390925,11.9189647 L8.78058894,9.16246148 L8.78058894,29.040344 L8.81944111,29.9721197 C8.81944111,30.3991836 8.89714543,30.9038955 9.05255409,31.4086073 L30.88747,39.0957572 L36.3267728,36.6886699 L36.3267728,36.6886699 L11.5390925,11.9189647 Z" id="Shape" fill="#00C4B3"></path>
                        <path d="M36.3267728,36.6886699 L30.88747,39.0957572 L9.09140625,31.4086073 C9.51878005,33.0003909 10.4123798,34.7862944 11.4225361,35.7957181 L18.532482,42.8616842 L34.3841647,42.9005082 L36.3267728,36.6886699 L36.3267728,36.6886699 Z" id="Shape" fill="#22D3C5"></path>
                        <path d="M8.85829327,9.16246148 L0.388521635,21.9743779 C-0.310817308,22.7120337 0.0388521635,24.2649933 1.1655649,25.429713 L6.0609375,30.3603596 L9.13025841,31.4474313 C9.01370192,30.9427195 8.89714543,30.4380076 8.89714543,30.0109437 L8.85829327,29.079168 L8.85829327,9.16246148 L8.85829327,9.16246148 Z" id="Shape" fill="#0075C9"></path>
                        <path d="M31.0428786,9.39540541 C30.5378005,9.27893344 30.0327224,9.20128547 29.6053486,9.16246148 L28.6340445,9.12363749 L8.78058894,9.12363749 L36.3267728,36.6498459 L36.3267728,36.6498459 L38.735607,31.2144874 L31.0428786,9.39540541 Z" id="Shape" fill="#0075C9"></path>
                        <path d="M31.0040264,9.39540541 L31.0040264,9.39540541 L31.0040264,9.39540541 L31.0040264,9.39540541 Z M35.4331731,11.7248448 C34.4230168,10.715421 32.6746695,9.7836453 31.0428786,9.39540541 L38.735607,31.2144874 L36.3267728,36.6498459 L36.3267728,36.6498459 L42.2323017,34.7474704 L42.2323017,18.5578669 L35.4331731,11.7248448 Z" id="Shape" fill="#00A8E1"></path>
                        <path d="M29.955018,6.36713425 L25.0207933,1.47531159 C23.8940805,0.349415904 22.339994,-2.83106871e-15 21.5629507,0.698831807 L8.74173678,9.16246148 L28.5951923,9.16246148 L29.5664964,9.20128547 C29.9938702,9.20128547 30.4989483,9.27893344 31.0040264,9.4342294 L29.955018,6.36713425 Z" id="Shape" fill="#00C4B3"></path>
                    </g>
                </g>
                <path d="M182.872,39 L178.456,39 L178.456,4.632 L190.168,4.632 C193.080015,4.632 195.599989,5.59999032 197.728,7.536 C199.856011,9.47200968 200.92,11.9119853 200.92,14.856 C200.92,17.8000147 199.856011,20.2399903 197.728,22.176 C195.599989,24.1120097 193.080015,25.08 190.168,25.08 L182.872,25.08 L182.872,39 Z M182.872,20.856 L190.264,20.856 C192.120009,20.856 193.607994,20.2320062 194.728,18.984 C195.848006,17.7359938 196.408,16.3600075 196.408,14.856 C196.408,13.3519925 195.848006,11.9760062 194.728,10.728 C193.607994,9.47999376 192.120009,8.856 190.264,8.856 L182.872,8.856 L182.872,20.856 Z M212.2,39.768 C209.703988,39.768 207.616008,39.0480072 205.936,37.608 C204.255992,36.1679928 203.416,34.2640118 203.416,31.896 C203.416,29.3359872 204.40799,27.3280073 206.392,25.872 C208.37601,24.4159927 210.823985,23.688 213.736,23.688 C216.328013,23.688 218.455992,24.1679952 220.12,25.128 L220.12,24.456 C220.12,22.7279914 219.528006,21.3440052 218.344,20.304 C217.159994,19.2639948 215.704009,18.744 213.976,18.744 C212.695994,18.744 211.536005,19.047997 210.496,19.656 C209.455995,20.264003 208.744002,21.0959947 208.36,22.152 L204.328,20.424 C204.872003,19.015993 205.943992,17.712006 207.544,16.512 C209.144008,15.311994 211.255987,14.712 213.88,14.712 C216.888015,14.712 219.38399,15.5919912 221.368,17.352 C223.35201,19.1120088 224.344,21.591984 224.344,24.792 L224.344,39 L220.12,39 L220.12,35.736 L219.928,35.736 C218.167991,38.4240134 215.592017,39.768 212.2,39.768 Z M212.92,35.736 C214.744009,35.736 216.399993,35.0560068 217.888,33.696 C219.376007,32.3359932 220.12,30.7280093 220.12,28.872 C218.871994,27.8479949 217.000012,27.336 214.504,27.336 C212.359989,27.336 210.744005,27.7999954 209.656,28.728 C208.567995,29.6560046 208.024,30.7439938 208.024,31.992 C208.024,33.1440058 208.519995,34.0559966 209.512,34.728 C210.504005,35.4000034 211.639994,35.736 212.92,35.736 Z M240.088,39.768 C236.567982,39.768 233.672011,38.5760119 231.4,36.192 C229.127989,33.8079881 227.992,30.8240179 227.992,27.24 C227.992,23.6559821 229.127989,20.6720119 231.4,18.288 C233.672011,15.9039881 236.567982,14.712 240.088,14.712 C242.712013,14.712 244.887991,15.3519936 246.616,16.632 C248.344009,17.9120064 249.607996,19.5279902 250.408,21.48 L246.376,23.16 C245.159994,20.2159853 242.968016,18.744 239.8,18.744 C237.84799,18.744 236.128007,19.543992 234.64,21.144 C233.151993,22.744008 232.408,24.7759877 232.408,27.24 C232.408,29.7040123 233.151993,31.735992 234.64,33.336 C236.128007,34.936008 237.84799,35.736 239.8,35.736 C243.096016,35.736 245.367994,34.2640147 246.616,31.32 L250.552,33 C249.751996,34.9200096 248.464009,36.5279935 246.688,37.824 C244.911991,39.1200065 242.712013,39.768 240.088,39.768 Z M258.808,4.632 L258.808,25.8 L268.984,15.48 L274.648,15.48 L274.648,15.672 L265.48,24.84 L275.08,38.808 L275.08,39 L269.752,39 L262.36,27.912 L258.808,31.464 L258.808,39 L254.392,39 L254.392,4.632 L258.808,4.632 Z M285.016,39.768 C282.519988,39.768 280.432008,39.0480072 278.752,37.608 C277.071992,36.1679928 276.232,34.2640118 276.232,31.896 C276.232,29.3359872 277.22399,27.3280073 279.208,25.872 C281.19201,24.4159927 283.639985,23.688 286.552,23.688 C289.144013,23.688 291.271992,24.1679952 292.936,25.128 L292.936,24.456 C292.936,22.7279914 292.344006,21.3440052 291.16,20.304 C289.975994,19.2639948 288.520009,18.744 286.792,18.744 C285.511994,18.744 284.352005,19.047997 283.312,19.656 C282.271995,20.264003 281.560002,21.0959947 281.176,22.152 L277.144,20.424 C277.688003,19.015993 278.759992,17.712006 280.36,16.512 C281.960008,15.311994 284.071987,14.712 286.696,14.712 C289.704015,14.712 292.19999,15.5919912 294.184,17.352 C296.16801,19.1120088 297.16,21.591984 297.16,24.792 L297.16,39 L292.936,39 L292.936,35.736 L292.744,35.736 C290.983991,38.4240134 288.408017,39.768 285.016,39.768 Z M285.736,35.736 C287.560009,35.736 289.215993,35.0560068 290.704,33.696 C292.192007,32.3359932 292.936,30.7280093 292.936,28.872 C291.687994,27.8479949 289.816012,27.336 287.32,27.336 C285.175989,27.336 283.560005,27.7999954 282.472,28.728 C281.383995,29.6560046 280.84,30.7439938 280.84,31.992 C280.84,33.1440058 281.335995,34.0559966 282.328,34.728 C283.320005,35.4000034 284.455994,35.736 285.736,35.736 Z M312.376,50.136 C309.591986,50.136 307.320009,49.440007 305.56,48.048 C303.799991,46.655993 302.536004,45.064009 301.768,43.272 L305.8,41.592 C306.248002,42.8720064 307.071994,43.9439957 308.272,44.808 C309.472006,45.6720043 310.839992,46.104 312.376,46.104 C314.808012,46.104 316.719993,45.3760073 318.112,43.92 C319.504007,42.4639927 320.2,40.4880125 320.2,37.992 L320.2,35.736 L320.008,35.736 C319.239996,36.8880058 318.152007,37.8479962 316.744,38.616 C315.335993,39.3840038 313.752009,39.768 311.992,39.768 C308.951985,39.768 306.328011,38.568012 304.12,36.168 C301.911989,33.767988 300.808,30.7920178 300.808,27.24 C300.808,23.6879822 301.911989,20.712012 304.12,18.312 C306.328011,15.911988 308.951985,14.712 311.992,14.712 C313.752009,14.712 315.335993,15.0959962 316.744,15.864 C318.152007,16.6320038 319.239996,17.5919942 320.008,18.744 L320.2,18.744 L320.2,15.48 L324.424,15.48 L324.424,37.8 C324.424,41.8320202 323.256012,44.8959895 320.92,46.992 C318.583988,49.0880105 315.736017,50.136 312.376,50.136 Z M312.712,35.736 C314.79201,35.736 316.559993,34.9680077 318.016,33.432 C319.472007,31.8959923 320.2,29.832013 320.2,27.24 C320.2,24.647987 319.472007,22.5840077 318.016,21.048 C316.559993,19.5119923 314.79201,18.744 312.712,18.744 C310.66399,18.744 308.904007,19.5199922 307.432,21.072 C305.959993,22.6240078 305.224,24.6799872 305.224,27.24 C305.224,29.8000128 305.959993,31.8559922 307.432,33.408 C308.904007,34.9600078 310.66399,35.736 312.712,35.736 Z M340.456,39.768 C336.903982,39.768 334.016011,38.5840118 331.792,36.216 C329.567989,33.8479882 328.456,30.8560181 328.456,27.24 C328.456,23.8159829 329.535989,20.8720123 331.696,18.408 C333.856011,15.9439877 336.615983,14.712 339.976,14.712 C343.464017,14.712 346.25599,15.8479886 348.352,18.12 C350.44801,20.3920114 351.496,23.431981 351.496,27.24 L351.448,28.056 L332.872,28.056 C333.000001,30.4240118 333.791993,32.2959931 335.248,33.672 C336.704007,35.0480069 338.40799,35.736 340.36,35.736 C343.528016,35.736 345.671994,34.3920134 346.792,31.704 L350.728,33.336 C349.959996,35.1600091 348.696009,36.6879938 346.936,37.92 C345.175991,39.1520062 343.016013,39.768 340.456,39.768 Z M346.792,24.408 C346.696,23.0639933 346.080006,21.7840061 344.944,20.568 C343.807994,19.3519939 342.120011,18.744 339.88,18.744 C338.247992,18.744 336.832006,19.2559949 335.632,20.28 C334.431994,21.3040051 333.608002,22.6799914 333.16,24.408 L346.792,24.408 Z M366.856,39 L366.856,4.632 L371.272,4.632 L383.224,25.56 L383.416,25.56 L395.368,4.632 L399.784,4.632 L399.784,39 L395.368,39 L395.368,18.6 L395.56,12.84 L395.368,12.84 L384.616,31.704 L382.024,31.704 L371.272,12.84 L371.08,12.84 L371.272,18.6 L371.272,39 L366.856,39 Z M413.368,39.768 C410.871988,39.768 408.784008,39.0480072 407.104,37.608 C405.423992,36.1679928 404.584,34.2640118 404.584,31.896 C404.584,29.3359872 405.57599,27.3280073 407.56,25.872 C409.54401,24.4159927 411.991985,23.688 414.904,23.688 C417.496013,23.688 419.623992,24.1679952 421.288,25.128 L421.288,24.456 C421.288,22.7279914 420.696006,21.3440052 419.512,20.304 C418.327994,19.2639948 416.872009,18.744 415.144,18.744 C413.863994,18.744 412.704005,19.047997 411.664,19.656 C410.623995,20.264003 409.912002,21.0959947 409.528,22.152 L405.496,20.424 C406.040003,19.015993 407.111992,17.712006 408.712,16.512 C410.312008,15.311994 412.423987,14.712 415.048,14.712 C418.056015,14.712 420.55199,15.5919912 422.536,17.352 C424.52001,19.1120088 425.512,21.591984 425.512,24.792 L425.512,39 L421.288,39 L421.288,35.736 L421.096,35.736 C419.335991,38.4240134 416.760017,39.768 413.368,39.768 Z M414.088,35.736 C415.912009,35.736 417.567993,35.0560068 419.056,33.696 C420.544007,32.3359932 421.288,30.7280093 421.288,28.872 C420.039994,27.8479949 418.168012,27.336 415.672,27.336 C413.527989,27.336 411.912005,27.7999954 410.824,28.728 C409.735995,29.6560046 409.192,30.7439938 409.192,31.992 C409.192,33.1440058 409.687995,34.0559966 410.68,34.728 C411.672005,35.4000034 412.807994,35.736 414.088,35.736 Z M434.728,15.48 L434.728,18.744 L434.92,18.744 C435.560003,17.6239944 436.567993,16.6720039 437.944,15.888 C439.320007,15.1039961 440.791992,14.712 442.36,14.712 C445.272015,14.712 447.495992,15.607991 449.032,17.4 C450.568008,19.192009 451.336,21.591985 451.336,24.6 L451.336,39 L446.92,39 L446.92,25.272 C446.92,20.9199782 444.984019,18.744 441.112,18.744 C439.287991,18.744 437.800006,19.4719927 436.648,20.928 C435.495994,22.3840073 434.92,24.0719904 434.92,25.992 L434.92,39 L430.504,39 L430.504,15.48 L434.728,15.48 Z M463.96,39.768 C461.463988,39.768 459.376008,39.0480072 457.696,37.608 C456.015992,36.1679928 455.176,34.2640118 455.176,31.896 C455.176,29.3359872 456.16799,27.3280073 458.152,25.872 C460.13601,24.4159927 462.583985,23.688 465.496,23.688 C468.088013,23.688 470.215992,24.1679952 471.88,25.128 L471.88,24.456 C471.88,22.7279914 471.288006,21.3440052 470.104,20.304 C468.919994,19.2639948 467.464009,18.744 465.736,18.744 C464.455994,18.744 463.296005,19.047997 462.256,19.656 C461.215995,20.264003 460.504002,21.0959947 460.12,22.152 L456.088,20.424 C456.632003,19.015993 457.703992,17.712006 459.304,16.512 C460.904008,15.311994 463.015987,14.712 465.64,14.712 C468.648015,14.712 471.14399,15.5919912 473.128,17.352 C475.11201,19.1120088 476.104,21.591984 476.104,24.792 L476.104,39 L471.88,39 L471.88,35.736 L471.688,35.736 C469.927991,38.4240134 467.352017,39.768 463.96,39.768 Z M464.68,35.736 C466.504009,35.736 468.159993,35.0560068 469.648,33.696 C471.136007,32.3359932 471.88,30.7280093 471.88,28.872 C470.631994,27.8479949 468.760012,27.336 466.264,27.336 C464.119989,27.336 462.504005,27.7999954 461.416,28.728 C460.327995,29.6560046 459.784,30.7439938 459.784,31.992 C459.784,33.1440058 460.279995,34.0559966 461.272,34.728 C462.264005,35.4000034 463.399994,35.736 464.68,35.736 Z M491.32,50.136 C488.535986,50.136 486.264009,49.440007 484.504,48.048 C482.743991,46.655993 481.480004,45.064009 480.712,43.272 L484.744,41.592 C485.192002,42.8720064 486.015994,43.9439957 487.216,44.808 C488.416006,45.6720043 489.783992,46.104 491.32,46.104 C493.752012,46.104 495.663993,45.3760073 497.056,43.92 C498.448007,42.4639927 499.144,40.4880125 499.144,37.992 L499.144,35.736 L498.952,35.736 C498.183996,36.8880058 497.096007,37.8479962 495.688,38.616 C494.279993,39.3840038 492.696009,39.768 490.936,39.768 C487.895985,39.768 485.272011,38.568012 483.064,36.168 C480.855989,33.767988 479.752,30.7920178 479.752,27.24 C479.752,23.6879822 480.855989,20.712012 483.064,18.312 C485.272011,15.911988 487.895985,14.712 490.936,14.712 C492.696009,14.712 494.279993,15.0959962 495.688,15.864 C497.096007,16.6320038 498.183996,17.5919942 498.952,18.744 L499.144,18.744 L499.144,15.48 L503.368,15.48 L503.368,37.8 C503.368,41.8320202 502.200012,44.8959895 499.864,46.992 C497.527988,49.0880105 494.680017,50.136 491.32,50.136 Z M491.656,35.736 C493.73601,35.736 495.503993,34.9680077 496.96,33.432 C498.416007,31.8959923 499.144,29.832013 499.144,27.24 C499.144,24.647987 498.416007,22.5840077 496.96,21.048 C495.503993,19.5119923 493.73601,18.744 491.656,18.744 C489.60799,18.744 487.848007,19.5199922 486.376,21.072 C484.903993,22.6240078 484.168,24.6799872 484.168,27.24 C484.168,29.8000128 484.903993,31.8559922 486.376,33.408 C487.848007,34.9600078 489.60799,35.736 491.656,35.736 Z M519.4,39.768 C515.847982,39.768 512.960011,38.5840118 510.736,36.216 C508.511989,33.8479882 507.4,30.8560181 507.4,27.24 C507.4,23.8159829 508.479989,20.8720123 510.64,18.408 C512.800011,15.9439877 515.559983,14.712 518.92,14.712 C522.408017,14.712 525.19999,15.8479886 527.296,18.12 C529.39201,20.3920114 530.44,23.431981 530.44,27.24 L530.392,28.056 L511.816,28.056 C511.944001,30.4240118 512.735993,32.2959931 514.192,33.672 C515.648007,35.0480069 517.35199,35.736 519.304,35.736 C522.472016,35.736 524.615994,34.3920134 525.736,31.704 L529.672,33.336 C528.903996,35.1600091 527.640009,36.6879938 525.88,37.92 C524.119991,39.1520062 521.960013,39.768 519.4,39.768 Z M525.736,24.408 C525.64,23.0639933 525.024006,21.7840061 523.888,20.568 C522.751994,19.3519939 521.064011,18.744 518.824,18.744 C517.191992,18.744 515.776006,19.2559949 514.576,20.28 C513.375994,21.3040051 512.552002,22.6799914 512.104,24.408 L525.736,24.408 Z M538.888,39 L534.472,39 L534.472,15.48 L538.696,15.48 L538.696,19.32 L538.888,19.32 C539.336002,18.0399936 540.255993,16.9840042 541.648,16.152 C543.040007,15.3199958 544.391993,14.904 545.704,14.904 C547.016007,14.904 548.119996,15.0959981 549.016,15.48 L547.336,19.608 C546.759997,19.3839989 545.976005,19.272 544.984,19.272 C543.383992,19.272 541.968006,19.9039937 540.736,21.168 C539.503994,22.4320063 538.888,24.0879898 538.888,26.136 L538.888,39 Z" id="Package-Manager" fill="#000000"></path>
            </g>
        </g>
    </g>
</svg>